<svg width="32" height="32" viewBox="0 0 32 32" fill="none" xmlns="http://www.w3.org/2000/svg">
  <rect width="32" height="32" fill="#1D4ED8"/>
  <path d="M12 7 C17 5.5, 20 7, 20 11.5 C20 13.5, 19 14.5, 17 15 C19 15.5, 20 16.5, 20 19.5 C20 24, 17 25.5, 12 24.5 C9.5 24, 8.5 22.5, 8.5 20 L11 20 C11 21.5, 11.5 22.5, 13 22.5 C14.5 22.5, 15.5 22, 15.5 20 C15.5 18, 14.5 17.5, 13 17.5 L11.5 17.5 L11.5 15.5 L13 15.5 C14.5 15.5, 15.5 15, 15.5 13 C15.5 11, 14.5 10.5, 13 10.5 C11.5 10.5, 11 11.5, 11 13 L8.5 13 C8.5 10.5, 9.5 9, 12 8" fill="white"/>
  <circle cx="19.5" cy="16" r="3.5" fill="none" stroke="#14B8A6" stroke-width="1.5"/>
</svg>
