<svg width="60" height="60" viewBox="0 0 60 60" fill="none" xmlns="http://www.w3.org/2000/svg">
  <g id="logo-mark">
    <!-- S with glove-to-gear transition -->
    <path d="M20 12 C30 9, 35 12, 35 19 C35 23, 33 25, 30 26 L30 26 C33 27, 35 29, 35 34 C35 41, 30 44, 20 42 C15 41, 13 39, 13 35 L18 35 C18 37, 19 39, 22 39 C25 39, 27 38, 27 35 C27 32, 25 31, 22 31 L19 31 L19 28 L22 28 C25 28, 27 27, 27 24 C27 21, 25 20, 22 20 C19 20, 18 22, 18 24 L13 24 C13 20, 15 18, 20 16" fill="#1D4ED8"/>
    
    <!-- Glove outline -->
    <path d="M12 13 L12 17 M14 13 L14 19 M16 13 L16 21" stroke="#14B8A6" stroke-width="1.5" stroke-linecap="round" opacity="0.6"/>
    
    <!-- Gear elements -->
    <path d="M37 19 L39 20 L39 22 L37 23 M37 29 L39 30 L39 32 L37 33 M37 35 L39 36 L39 38 L37 39" stroke="#14B8A6" stroke-width="1.5" stroke-linejoin="round" opacity="0.6"/>
    
    <!-- Central mechanism -->
    <circle cx="34" cy="27" r="6" fill="none" stroke="#0F172A" stroke-width="2"/>
    <circle cx="34" cy="27" r="3" fill="#1D4ED8"/>
  </g>
</svg>
