<svg width="960" height="540" viewBox="0 0 960 540" xmlns="http://www.w3.org/2000/svg" role="img" aria-labelledby="title desc">
  <title id="title">SWAMZ hero illustration</title>
  <desc id="desc">Abstract scene of manufacturing facility with protective gloves and machinery silhouettes.</desc>
  <defs>
    <linearGradient id="heroBg" x1="0%" y1="0%" x2="100%" y2="100%">
      <stop offset="0%" stop-color="#020617" />
      <stop offset="100%" stop-color="#1e3a8a" />
    </linearGradient>
    <linearGradient id="heroOverlay" x1="0%" y1="100%" x2="100%" y2="0%">
      <stop offset="0%" stop-color="#38bdf8" stop-opacity="0.4" />
      <stop offset="100%" stop-color="#14b8a6" stop-opacity="0.25" />
    </linearGradient>
  </defs>
  <rect width="960" height="540" rx="32" fill="#000" />
  <rect x="24" y="24" width="912" height="492" rx="28" fill="url(#heroBg)" />
  <rect x="52" y="60" width="856" height="420" rx="24" fill="url(#heroOverlay)" opacity="0.85" />
  <g fill="#0b1120" opacity="0.6">
    <rect x="120" y="240" width="120" height="200" rx="16" />
    <rect x="260" y="200" width="140" height="240" rx="18" />
    <rect x="420" y="260" width="160" height="180" rx="20" />
    <rect x="600" y="220" width="160" height="220" rx="18" />
    <rect x="780" y="260" width="120" height="180" rx="16" />
  </g>
  <g stroke="#f8fafc" stroke-width="6" stroke-linecap="round" stroke-linejoin="round" opacity="0.7">
    <path d="M200 360l40-120 36 64 40-140 36 96 36-80" />
    <path d="M520 420l32-80 44 48 36-76 40 80" />
  </g>
  <g fill="#14b8a6" opacity="0.3">
    <circle cx="240" cy="200" r="48" />
    <circle cx="420" cy="184" r="56" />
    <circle cx="620" cy="180" r="52" />
  </g>
  <text x="50%" y="90%" fill="#f8fafc" font-size="40" font-family="'Poppins', Arial, sans-serif" text-anchor="middle">Safety. Precision. Partnership.</text>
</svg>
