<svg width="640" height="400" viewBox="0 0 640 400" xmlns="http://www.w3.org/2000/svg" role="img" aria-labelledby="title desc">
  <title id="title">Team collaboration placeholder</title>
  <desc id="desc">Stylised silhouettes of professionals collaborating.</desc>
  <defs>
    <linearGradient id="teamGradient" x1="0%" y1="0%" x2="100%" y2="100%">
      <stop offset="0%" stop-color="#0f172a" />
      <stop offset="100%" stop-color="#1e293b" />
    </linearGradient>
    <linearGradient id="teamAccent" x1="0%" y1="100%" x2="100%" y2="0%">
      <stop offset="0%" stop-color="#38bdf8" stop-opacity="0.35" />
      <stop offset="100%" stop-color="#10b981" stop-opacity="0.25" />
    </linearGradient>
  </defs>
  <rect width="640" height="400" rx="24" fill="#020617" />
  <rect x="20" y="20" width="600" height="360" rx="20" fill="url(#teamGradient)" />
  <rect x="40" y="60" width="560" height="280" rx="18" fill="url(#teamAccent)" opacity="0.8" />
  <g fill="#f8fafc" opacity="0.75">
    <circle cx="180" cy="224" r="44" />
    <circle cx="320" cy="196" r="54" />
    <circle cx="460" cy="230" r="42" />
  </g>
  <g fill="#14b8a6" opacity="0.35">
    <path d="M100 320c12-48 60-76 116-76s104 28 116 76H100z" />
    <path d="M220 320c12-56 64-92 120-92s108 36 120 92H220z" />
  </g>
  <text x="50%" y="88%" fill="#f8fafc" font-size="28" font-family="'Poppins', Arial, sans-serif" text-anchor="middle">Global Expertise, Local Support</text>
</svg>
