<svg width="640" height="400" viewBox="0 0 640 400" xmlns="http://www.w3.org/2000/svg" role="img" aria-labelledby="title desc">
  <title id="title">Quality laboratory placeholder</title>
  <desc id="desc">Stylised lab environment showing testing equipment and certifications.</desc>
  <defs>
    <linearGradient id="labGradient" x1="0%" y1="0%" x2="100%" y2="100%">
      <stop offset="0%" stop-color="#020617" />
      <stop offset="100%" stop-color="#1f2937" />
    </linearGradient>
    <linearGradient id="labAccent" x1="0%" y1="100%" x2="100%" y2="0%">
      <stop offset="0%" stop-color="#38bdf8" stop-opacity="0.35" />
      <stop offset="100%" stop-color="#8b5cf6" stop-opacity="0.25" />
    </linearGradient>
  </defs>
  <rect width="640" height="400" rx="24" fill="#000814" />
  <rect x="20" y="20" width="600" height="360" rx="20" fill="url(#labGradient)" />
  <rect x="40" y="60" width="560" height="280" rx="18" fill="url(#labAccent)" opacity="0.7" />
  <g stroke="#f8fafc" stroke-width="4" stroke-linecap="round" stroke-linejoin="round" opacity="0.75">
    <rect x="120" y="150" width="80" height="120" rx="12" fill="none" />
    <rect x="220" y="110" width="100" height="160" rx="16" fill="none" />
    <path d="M240 160h60" />
    <path d="M240 200h60" />
    <path d="M160 200h-40l-20 36h80l-20-36z" fill="rgba(56,189,248,0.25)" />
    <circle cx="400" cy="160" r="60" fill="none" />
    <path d="M360 220h80l-20 60h-40z" fill="rgba(20,184,166,0.25)" />
    <path d="M430 140l20 24 50-60" />
  </g>
  <text x="50%" y="88%" fill="#f8fafc" font-size="28" font-family="'Poppins', Arial, sans-serif" text-anchor="middle">Quality & Certification Hub</text>
</svg>
