<svg width="640" height="400" viewBox="0 0 640 400" xmlns="http://www.w3.org/2000/svg" role="img" aria-labelledby="title desc">
  <title id="title">Case study placeholder</title>
  <desc id="desc">Abstract cityscape with overlay grid representing industrial success.</desc>
  <defs>
    <linearGradient id="caseGradient" x1="0%" y1="0%" x2="100%" y2="100%">
      <stop offset="0%" stop-color="#312e81" />
      <stop offset="100%" stop-color="#0f172a" />
    </linearGradient>
    <linearGradient id="caseOverlay" x1="0%" y1="100%" x2="100%" y2="0%">
      <stop offset="0%" stop-color="#38bdf8" stop-opacity="0.35" />
      <stop offset="100%" stop-color="#22d3ee" stop-opacity="0.15" />
    </linearGradient>
  </defs>
  <rect width="640" height="400" rx="24" fill="#020617" />
  <rect x="20" y="20" width="600" height="360" rx="20" fill="url(#caseGradient)" />
  <g fill="#0f172a" opacity="0.5">
    <rect x="60" y="180" width="60" height="160" />
    <rect x="132" y="140" width="72" height="200" />
    <rect x="216" y="200" width="80" height="140" />
    <rect x="312" y="100" width="56" height="240" />
    <rect x="384" y="160" width="72" height="180" />
    <rect x="468" y="120" width="96" height="220" />
  </g>
  <rect x="40" y="60" width="560" height="280" rx="18" fill="url(#caseOverlay)" />
  <g stroke="#f8fafc" stroke-width="3" stroke-linecap="round" opacity="0.7">
    <polyline points="80 280 160 220 240 240 320 180 400 220 480 160 560 190" fill="none" />
    <circle cx="160" cy="220" r="6" fill="#22d3ee" />
    <circle cx="320" cy="180" r="6" fill="#22d3ee" />
    <circle cx="480" cy="160" r="6" fill="#22d3ee" />
  </g>
  <text x="50%" y="88%" fill="#f8fafc" font-size="28" font-family="'Poppins', Arial, sans-serif" text-anchor="middle">Documented Success Stories</text>
</svg>
