<svg width="640" height="400" viewBox="0 0 640 400" xmlns="http://www.w3.org/2000/svg" role="img" aria-labelledby="title desc">
  <title id="title">Industrial gloves placeholder illustration</title>
  <desc id="desc">Abstract gradient background with glove outline.</desc>
  <defs>
    <linearGradient id="glovesGradient" x1="0%" y1="0%" x2="100%" y2="100%">
      <stop offset="0%" stop-color="#1e3a8a" />
      <stop offset="100%" stop-color="#14b8a6" />
    </linearGradient>
    <linearGradient id="glovesAccent" x1="0%" y1="0%" x2="100%" y2="0%">
      <stop offset="0%" stop-color="#38bdf8" stop-opacity="0.4" />
      <stop offset="100%" stop-color="#a855f7" stop-opacity="0.2" />
    </linearGradient>
  </defs>
  <rect width="640" height="400" rx="24" fill="#0f172a" />
  <rect x="20" y="20" width="600" height="360" rx="20" fill="url(#glovesGradient)" opacity="0.9" />
  <rect x="40" y="60" width="560" height="280" rx="16" fill="url(#glovesAccent)" opacity="0.7" />
  <g fill="none" stroke="#f8fafc" stroke-width="4" opacity="0.8">
    <path d="M240 280c-12-40-24-120-12-152 6-16 20-24 32-22 10 2 20 12 26 34 14-40 32-58 52-52 18 6 28 30 22 66 12-18 24-22 34-16 12 6 16 24 12 52-4 32-12 80-16 88-20 4-136 4-150 2z" />
    <path d="M246 254c38 2 112 4 146-2" opacity="0.5" />
  </g>
  <text x="50%" y="88%" fill="#f8fafc" font-size="28" font-family="'Poppins', Arial, sans-serif" text-anchor="middle">Protective Textile Range</text>
</svg>
